<?xml version="1.0" encoding="utf-8"?>
<!-- Generator: Adobe Illustrator 18.1.0, SVG Export Plug-In . SVG Version: 6.00 Build 0)  -->
<svg version="1.1" id="Layer_1" xmlns="http://www.w3.org/2000/svg" xmlns:xlink="http://www.w3.org/1999/xlink" x="0px" y="0px"
	 viewBox="0 0 138.5 39.5" enable-background="new 0 0 138.5 39.5" xml:space="preserve">
<g>
	<path fill="#0F2F7F" d="M9.5,38.8H0V0h14c9.7,0,14.7,6,14.7,13.3S23.7,26.9,14,26.9H9.5V38.8z M9.5,8.3v10.4h2.7
		c3.9,0,6.8-1.3,6.8-5.3c0-3.9-2.9-5-6.8-5H9.5z"/>
	<path fill="#0F2F7F" d="M28.7,25.9c0-7.9,6.2-13.5,13.9-13.5c7.7,0,13.9,5.7,13.9,13.5c0,7.9-6.2,13.6-13.9,13.6
		C34.8,39.5,28.7,33.8,28.7,25.9z M37.6,25.9c0,3.2,2.1,5.5,5,5.5c2.9,0,5-2.4,5-5.5c0-3.2-2.1-5.5-5-5.5
		C39.6,20.4,37.6,22.7,37.6,25.9z"/>
	<path fill="#0F2F7F" d="M75.8,20.4h-3.2c-3.8,0-4.8,3.3-4.8,6.6v11.9h-8.9V13h8.5v4.1c0.5-2.9,2.4-4.2,4.1-4.2
		c0.7,0,4.2,0.1,4.2,0.1V20.4z"/>
	<path fill="#0F2F7F" d="M91.1,3.8V13h5.2v7.3h-5.2v9.4c0,1.5,1.3,1.7,2.3,1.7c1.7,0,2.9-0.2,2.9-0.2v7.6c0,0-4.2,0.3-6.3,0.3
		c-4.2,0-7.7-1.2-7.7-6.5V20.3h-3.8V13h3.8V3.8H91.1z"/>
	<path fill="#0F2F7F" d="M98.2,25.9c0-7.9,6.2-13.5,13.9-13.5c7.7,0,13.9,5.7,13.9,13.5c0,7.9-6.2,13.6-13.9,13.6
		C104.3,39.5,98.2,33.8,98.2,25.9z M107,25.9c0,3.2,2.1,5.5,5,5.5c2.9,0,5-2.4,5-5.5c0-3.2-2.1-5.5-5-5.5
		C109.1,20.4,107,22.7,107,25.9z"/>
	<path fill="#0F2F7F" d="M132.9,28.4c3.1,0,5.6,2.5,5.6,5.6c0,3.1-2.5,5.5-5.6,5.5c-3.1,0-5.5-2.5-5.5-5.5
		C127.4,30.9,129.9,28.4,132.9,28.4z"/>
</g>
</svg>
